#tb 0: 1/16
0,          0,          0,        1,    28800, 0x026058a9
0,          1,          1,        1,    28800, 0x5dc728de
0,          2,          2,        1,    28800, 0x83e19a2c
0,          3,          3,        1,    28800, 0xb029f94a
0,          4,          4,        1,    28800, 0x735a6b15
0,          5,          5,        1,    28800, 0xf7e9dc8b
0,          6,          6,        1,    28800, 0xa108b0cf
0,          7,          7,        1,    28800, 0x3d11c138
0,          8,          8,        1,    28800, 0xed23afda
0,          9,          9,        1,    28800, 0x713bb2dc
0,         10,         10,        1,    28800, 0x551ad51e
0,         11,         11,        1,    28800, 0x49dfcf2d
0,         12,         12,        1,    28800, 0x6399d5b3
0,         13,         13,        1,    28800, 0x520ad812
0,         14,         14,        1,    28800, 0xc46ad9da
0,         15,         15,        1,    28800, 0xe79edb9e
0,         16,         16,        1,    28800, 0xdb1acb30
0,         17,         17,        1,    28800, 0x050fb669
0,         18,         18,        1,    28800, 0x096ca687
0,         19,         19,        1,    28800, 0x0054a6bd
0,         20,         20,        1,    28800, 0x6d7daad2
0,         21,         21,        1,    28800, 0x9c10a9dc
0,         22,         22,        1,    28800, 0x89b1a623
0,         23,         23,        1,    28800, 0xa0a19c3f
0,         24,         24,        1,    28800, 0x26c898ad
0,         25,         25,        1,    28800, 0x6f639dae
0,         26,         26,        1,    28800, 0xa173a9b5
0,         27,         27,        1,    28800, 0xa309aa08
0,         28,         28,        1,    28800, 0x2059b6c4
0,         29,         29,        1,    28800, 0x5ae8c761
0,         30,         30,        1,    28800, 0xb780c9c5
0,         31,         31,        1,    28800, 0xf58ac8fe
0,         32,         32,        1,    28800, 0x9bb307e7
0,         33,         33,        1,    28800, 0xd32c3e81
0,         34,         34,        1,    28800, 0x4edd51d2
0,         35,         35,        1,    28800, 0x5a88684d
0,         36,         36,        1,    28800, 0x5bd97f0e
0,         37,         37,        1,    28800, 0x36d67843
0,         38,         38,        1,    28800, 0x0e18781d
0,         39,         39,        1,    28800, 0xa3168807
0,         40,         40,        1,    28800, 0xa7c575b8
0,         41,         41,        1,    28800, 0x86367c37
0,         42,         42,        1,    28800, 0xb0f79180
0,         43,         43,        1,    28800, 0x61da8c0f
0,         44,         44,        1,    28800, 0x9b11948a
0,         45,         45,        1,    28800, 0xc53d9b44
0,         46,         46,        1,    28800, 0xdc699185
0,         47,         47,        1,    28800, 0x7b4f92b5
0,         48,         48,        1,    28800, 0x40469065
0,         49,         49,        1,    28800, 0x737ea07e
0,         50,         50,        1,    28800, 0x0db49c8b
0,         51,         51,        1,    28800, 0x39249f10
0,         52,         52,        1,    28800, 0xc182ab99
0,         53,         53,        1,    28800, 0xd8f7a7c9
0,         54,         54,        1,    28800, 0x46789caa
0,         55,         55,        1,    28800, 0x4759a374
0,         56,         56,        1,    28800, 0xe621b16a
0,         57,         57,        1,    28800, 0xcf47a999
0,         58,         58,        1,    28800, 0x801dacd4
0,         59,         59,        1,    28800, 0xe580af51
0,         60,         60,        1,    28800, 0x03d7a887
0,         61,         61,        1,    28800, 0xa67ea51d
0,         62,         62,        1,    28800, 0x9fee0ec8
0,         63,         63,        1,    28800, 0x7f602a5e
0,         64,         64,        1,    28800, 0x100d432a
0,         65,         65,        1,    28800, 0x42164dfb
0,         66,         66,        1,    28800, 0x86c05196
0,         67,         67,        1,    28800, 0xfc225938
0,         68,         68,        1,    28800, 0x81085e87
0,         69,         69,        1,    28800, 0xaa8f5d0a
0,         70,         70,        1,    28800, 0x605a5f9f
0,         71,         71,        1,    28800, 0x68dc64b2
0,         72,         72,        1,    28800, 0xd08e710b
0,         73,         73,        1,    28800, 0xf8567939
0,         74,         74,        1,    28800, 0x8dad7a4f
0,         75,         75,        1,    28800, 0x1a19813c
0,         76,         76,        1,    28800, 0x8a157f0e
0,         77,         77,        1,    28800, 0xa4fa7b9d
0,         78,         78,        1,    28800, 0x093b7b36
0,         79,         79,        1,    28800, 0xa925755b
0,         80,         80,        1,    28800, 0xa5968138
0,         81,         81,        1,    28800, 0xe00877ac
0,         82,         82,        1,    28800, 0xd736183e
0,         83,         83,        1,    28800, 0x356f2068
0,         84,         84,        1,    28800, 0xf9a50f22
0,         85,         85,        1,    28800, 0x92df2ae8
0,         86,         86,        1,    28800, 0x67a43dc8
0,         87,         87,        1,    28800, 0xf8ce2ead
0,         88,         88,        1,    28800, 0xf42f37ee
0,         89,         89,        1,    28800, 0x03611f37
0,         90,         90,        1,    28800, 0xddda2327
0,         91,         91,        1,    28800, 0xdf073d85
0,         92,         92,        1,    28800, 0xa8331fee
0,         93,         93,        1,    28800, 0x59d3490a
0,         94,         94,        1,    28800, 0xa8335be6
0,         95,         95,        1,    28800, 0xd5483b43
0,         96,         96,        1,    28800, 0x23422dc9
0,         97,         97,        1,    28800, 0xc04e4689
0,         98,         98,        1,    28800, 0xd4d96372
0,         99,         99,        1,    28800, 0x9c814e96
0,        100,        100,        1,    28800, 0x7c4b5d3b
0,        101,        101,        1,    28800, 0x6bf66c04
0,        102,        102,        1,    28800, 0x6e8d4bb6
0,        103,        103,        1,    28800, 0xad964d00
0,        104,        104,        1,    28800, 0x1ff36bd1
0,        105,        105,        1,    28800, 0xa4664c76
0,        106,        106,        1,    28800, 0x50626d82
0,        107,        107,        1,    28800, 0x81906c5c
0,        108,        108,        1,    28800, 0x5060543f
0,        109,        109,        1,    28800, 0x231c5a86
0,        110,        110,        1,    28800, 0x79775d48
0,        111,        111,        1,    28800, 0xbb893571
0,        112,        112,        1,    28800, 0x794c49ed
0,        113,        113,        1,    28800, 0x70464bac
0,        114,        114,        1,    28800, 0xe79549ce
0,        115,        115,        1,    28800, 0xa6565555
0,        116,        116,        1,    28800, 0x2ef1ad6d
0,        117,        117,        1,    28800, 0xdd22b9aa
0,        118,        118,        1,    28800, 0x26ebaa97
0,        119,        119,        1,    28800, 0x32bd979e
0,        120,        120,        1,    28800, 0x4c167c9a
0,        121,        121,        1,    28800, 0xfdf76051
0,        122,        122,        1,    28800, 0x966938a8
0,        123,        123,        1,    28800, 0xcea3fbde
0,        124,        124,        1,    28800, 0x29a0c213
0,        125,        125,        1,    28800, 0x5633a1c2
0,        126,        126,        1,    28800, 0xdc0b9af8
0,        127,        127,        1,    28800, 0x92138848
0,        128,        128,        1,    28800, 0xd7308da5
0,        129,        129,        1,    28800, 0x0c8f9b3f
0,        130,        130,        1,    28800, 0xd059b5d1
0,        131,        131,        1,    28800, 0xba6ed9cd
0,        132,        132,        1,    28800, 0x896c1064
0,        133,        133,        1,    28800, 0x986e2fc9
0,        134,        134,        1,    28800, 0xcba94e4b
0,        135,        135,        1,    28800, 0xf3e778ed
0,        136,        136,        1,    28800, 0xc6cd7d48
0,        137,        137,        1,    28800, 0xd9bd84d8
0,        138,        138,        1,    28800, 0x391197b4
0,        139,        139,        1,    28800, 0xf361a1d9
0,        140,        140,        1,    28800, 0x9a1ea54e
0,        141,        141,        1,    28800, 0x551aab57
0,        142,        142,        1,    28800, 0x3af8577d
0,        143,        143,        1,    28800, 0x10f76ed0
0,        144,        144,        1,    28800, 0x026a7fde
0,        145,        145,        1,    28800, 0x3e0e8db8
0,        146,        146,        1,    28800, 0x22998d2d
0,        147,        147,        1,    28800, 0x05978b12
0,        148,        148,        1,    28800, 0x38b88294
0,        149,        149,        1,    28800, 0x2ef677d6
0,        150,        150,        1,    28800, 0x0b9a8894
0,        151,        151,        1,    28800, 0x2dcb6718
0,        152,        152,        1,    28800, 0xa31b6679
0,        153,        153,        1,    28800, 0x262d6a50
0,        154,        154,        1,    28800, 0xff3d6d0d
0,        155,        155,        1,    28800, 0x159d7045
0,        156,        156,        1,    28800, 0xf0df7800
0,        157,        157,        1,    28800, 0xbe825ea5
0,        158,        158,        1,    28800, 0x80e25d5a
0,        159,        159,        1,    28800, 0x8cbe263f
